{
  "accessors": [
    {
      "bufferView": 2,
      "componentType": 5126,
      "count": 96,
      "max": [
        0.42281457781791687,
        0.49545276165008545,
        0.39805525541305542
      ],
      "min": [
        -0.37812235951423645,
        0.032392948865890503,
        -0.42397922277450562
      ],
      "type": "VEC3"
    },
    {
      "bufferView": 2,
      "byteOffset": 1152,
      "componentType": 5126,
      "count": 96,
      "max": [
        0.91083341836929321,
        0.99924588203430176,
        0.9131162166595459
      ],
      "min": [
        -0.91083347797393799,
        -0.99920839071273804,
        -0.91311627626419067
      ],
      "type": "VEC3"
    },
    {
      "bufferView": 1,
      "componentType": 5126,
      "count": 96,
      "max": [
        0.875,
        1
      ],
      "min": [
        0.125,
        0
      ],
      "type": "VEC2"
    },
    {
      "bufferView": 0,
      "componentType": 5125,
      "count": 144,
      "max": [
        95
      ],
      "min": [
        0
      ],
      "type": "SCALAR"
    },
    {
      "bufferView": 2,
      "byteOffset": 2304,
      "componentType": 5126,
      "count": 616,
      "max": [
        0.42281457781791687,
        0.63248026371002197,
        0.39805525541305542
      ],
      "min": [
        -0.37812235951423645,
        0.021975904703140259,
        -0.42397922277450562
      ],
      "type": "VEC3"
    },
    {
      "bufferView": 2,
      "byteOffset": 9696,
      "componentType": 5126,
      "count": 616,
      "max": [
        0.94560176134109497,
        1,
        0.95273560285568237
      ],
      "min": [
        -0.9456017017364502,
        -1,
        -0.94560158252716064
      ],
      "type": "VEC3"
    },
    {
      "bufferView": 1,
      "byteOffset": 768,
      "componentType": 5126,
      "count": 616,
      "max": [
        0.875,
        1
      ],
      "min": [
        0.125,
        0
      ],
      "type": "VEC2"
    },
    {
      "bufferView": 0,
      "byteOffset": 576,
      "componentType": 5125,
      "count": 924,
      "max": [
        615
      ],
      "min": [
        0
      ],
      "type": "SCALAR"
    },
    {
      "bufferView": 2,
      "byteOffset": 17088,
      "componentType": 5126,
      "count": 96,
      "max": [
        0.42281457781791687,
        0.49545276165008545,
        0.39805525541305542
      ],
      "min": [
        -0.37812235951423645,
        0.032392948865890503,
        -0.42397922277450562
      ],
      "type": "VEC3"
    },
    {
      "bufferView": 2,
      "byteOffset": 18240,
      "componentType": 5126,
      "count": 96,
      "max": [
        0.91083341836929321,
        0.99924588203430176,
        0.9131162166595459
      ],
      "min": [
        -0.91083347797393799,
        -0.99920839071273804,
        -0.91311627626419067
      ],
      "type": "VEC3"
    },
    {
      "bufferView": 1,
      "byteOffset": 5696,
      "componentType": 5126,
      "count": 96,
      "max": [
        0.875,
        1
      ],
      "min": [
        0.125,
        0
      ],
      "type": "VEC2"
    },
    {
      "bufferView": 0,
      "byteOffset": 4272,
      "componentType": 5125,
      "count": 144,
      "max": [
        95
      ],
      "min": [
        0
      ],
      "type": "SCALAR"
    },
    {
      "bufferView": 2,
      "byteOffset": 19392,
      "componentType": 5126,
      "count": 616,
      "max": [
        0.42281457781791687,
        0.63248026371002197,
        0.39805525541305542
      ],
      "min": [
        -0.37812235951423645,
        0.021975904703140259,
        -0.42397922277450562
      ],
      "type": "VEC3"
    },
    {
      "bufferView": 2,
      "byteOffset": 26784,
      "componentType": 5126,
      "count": 616,
      "max": [
        0.94560176134109497,
        1,
        0.95273560285568237
      ],
      "min": [
        -0.9456017017364502,
        -1,
        -0.94560158252716064
      ],
      "type": "VEC3"
    },
    {
      "bufferView": 1,
      "byteOffset": 6464,
      "componentType": 5126,
      "count": 616,
      "max": [
        0.875,
        1
      ],
      "min": [
        0.125,
        0
      ],
      "type": "VEC2"
    },
    {
      "bufferView": 0,
      "byteOffset": 4848,
      "componentType": 5125,
      "count": 924,
      "max": [
        615
      ],
      "min": [
        0
      ],
      "type": "SCALAR"
    },
    {
      "bufferView": 2,
      "byteOffset": 34176,
      "componentType": 5126,
      "count": 192,
      "max": [
        0.42281457781791687,
        0.50586986541748047,
        0.39805525541305542
      ],
      "min": [
        -0.37812235951423645,
        0.021975904703140259,
        -0.42397922277450562
      ],
      "type": "VEC3"
    },
    {
      "bufferView": 2,
      "byteOffset": 36480,
      "componentType": 5126,
      "count": 192,
      "max": [
        0.89649689197540283,
        0.0028430884703993797,
        0.89649868011474609
      ],
      "min": [
        -0.89649689197540283,
        -0.99928045272827148,
        -0.89649862051010132
      ],
      "type": "VEC3"
    },
    {
      "bufferView": 1,
      "byteOffset": 11392,
      "componentType": 5126,
      "count": 192,
      "max": [
        0.875,
        1
      ],
      "min": [
        0.125,
        0
      ],
      "type": "VEC2"
    },
    {
      "bufferView": 0,
      "byteOffset": 8544,
      "componentType": 5125,
      "count": 288,
      "max": [
        191
      ],
      "min": [
        0
      ],
      "type": "SCALAR"
    },
    {
      "bufferView": 2,
      "byteOffset": 38784,
      "componentType": 5126,
      "count": 424,
      "max": [
        0.31956812739372253,
        0.63248026371002197,
        0.30452555418014526
      ],
      "min": [
        -0.27487573027610779,
        0.021975904703140259,
        -0.33044940233230591
      ],
      "type": "VEC3"
    },
    {
      "bufferView": 2,
      "byteOffset": 43872,
      "componentType": 5126,
      "count": 424,
      "max": [
        0.94560176134109497,
        1,
        0.95273560285568237
      ],
      "min": [
        -0.9456017017364502,
        -1,
        -0.94560158252716064
      ],
      "type": "VEC3"
    },
    {
      "bufferView": 1,
      "byteOffset": 12928,
      "componentType": 5126,
      "count": 424,
      "max": [
        0.875,
        0.89600002765655518
      ],
      "min": [
        0.125,
        0.10400000214576721
      ],
      "type": "VEC2"
    },
    {
      "bufferView": 0,
      "byteOffset": 9696,
      "componentType": 5125,
      "count": 636,
      "max": [
        423
      ],
      "min": [
        0
      ],
      "type": "SCALAR"
    },
    {
      "bufferView": 2,
      "byteOffset": 48960,
      "componentType": 5126,
      "count": 96,
      "max": [
        0.42281457781791687,
        0.49545276165008545,
        0.39805525541305542
      ],
      "min": [
        -0.37812235951423645,
        0.032392948865890503,
        -0.42397922277450562
      ],
      "type": "VEC3"
    },
    {
      "bufferView": 2,
      "byteOffset": 50112,
      "componentType": 5126,
      "count": 96,
      "max": [
        0.91083341836929321,
        0.99924588203430176,
        0.9131162166595459
      ],
      "min": [
        -0.91083347797393799,
        -0.99920839071273804,
        -0.91311627626419067
      ],
      "type": "VEC3"
    },
    {
      "bufferView": 1,
      "byteOffset": 16320,
      "componentType": 5126,
      "count": 96,
      "max": [
        0.875,
        1
      ],
      "min": [
        0.125,
        0
      ],
      "type": "VEC2"
    },
    {
      "bufferView": 0,
      "byteOffset": 12240,
      "componentType": 5125,
      "count": 144,
      "max": [
        95
      ],
      "min": [
        0
      ],
      "type": "SCALAR"
    }
  ],
  "asset": {
    "extras": {
      "author": "PatelDev (https://sketchfab.com/PatelDev)",
      "license": "CC-BY-4.0 (http://creativecommons.org/licenses/by/4.0/)",
      "source": "https://sketchfab.com/3d-models/gifts-4c63873087264787b70ff0dc14994988",
      "title": "Gifts"
    },
    "generator": "Sketchfab-9.94.0",
    "version": "2.0"
  },
  "bufferViews": [
    {
      "buffer": 0,
      "byteLength": 12816,
      "byteOffset": 0,
      "name": "floatBufferViews",
      "target": 34963
    },
    {
      "buffer": 0,
      "byteLength": 17088,
      "byteOffset": 12816,
      "byteStride": 8,
      "name": "floatBufferViews",
      "target": 34962
    },
    {
      "buffer": 0,
      "byteLength": 51264,
      "byteOffset": 29904,
      "byteStride": 12,
      "name": "floatBufferViews",
      "target": 34962
    }
  ],
  "buffers": [
    {
      "byteLength": 81168,
      "uri": "scene.bin"
    }
  ],
  "materials": [
    {
      "doubleSided": true,
      "name": "material_0",
      "pbrMetallicRoughness": {
        "baseColorFactor": [
          0.95040749165796068,
          0.75358181021067638,
          0,
          1
        ],
        "metallicFactor": 0,
        "roughnessFactor": 0.59999999999999998
      }
    },
    {
      "doubleSided": true,
      "emissiveFactor": [
        0,
        0,
        0
      ],
      "name": "Material.003",
      "pbrMetallicRoughness": {
        "baseColorFactor": [
          0.79999999999999993,
          0.006198770000000001,
          0.0049306999999999962,
          1
        ],
        "metallicFactor": 0,
        "roughnessFactor": 0.5
      }
    },
    {
      "doubleSided": true,
      "emissiveFactor": [
        0,
        0,
        0
      ],
      "name": "Material.001",
      "pbrMetallicRoughness": {
        "baseColorFactor": [
          0.80000000000000004,
          0.80000000000000004,
          0.80000000000000004,
          1
        ],
        "metallicFactor": 0,
        "roughnessFactor": 0
      }
    },
    {
      "doubleSided": true,
      "emissiveFactor": [
        0,
        0,
        0
      ],
      "name": "Material.012",
      "pbrMetallicRoughness": {
        "baseColorFactor": [
          0.79999999999999993,
          0.0076066099999999928,
          0.54762799999999956,
          1
        ],
        "metallicFactor": 0,
        "roughnessFactor": 0.5
      }
    },
    {
      "doubleSided": true,
      "emissiveFactor": [
        0,
        0,
        0
      ],
      "name": "Material.011",
      "pbrMetallicRoughness": {
        "baseColorFactor": [
          0.0026178799999999965,
          0.79999999999999993,
          0.0035736000000000058,
          1
        ],
        "metallicFactor": 0.60364719187202454,
        "roughnessFactor": 0
      }
    },
    {
      "doubleSided": true,
      "emissiveFactor": [
        0,
        0,
        0
      ],
      "name": "Material.017",
      "pbrMetallicRoughness": {
        "baseColorFactor": [
          0.0026178799999999999,
          0.80000000000000004,
          0.0035736000000000001,
          1
        ],
        "metallicFactor": 0,
        "roughnessFactor": 0.40000000000000002
      }
    },
    {
      "doubleSided": true,
      "emissiveFactor": [
        0,
        0,
        0
      ],
      "name": "Material.014",
      "pbrMetallicRoughness": {
        "baseColorFactor": [
          0.65000500000000017,
          0.11513400000000004,
          0.0073557299999999978,
          1
        ],
        "metallicFactor": 0,
        "roughnessFactor": 0
      }
    }
  ],
  "meshes": [
    {
      "primitives": [
        {
          "attributes": {
            "NORMAL": 1,
            "POSITION": 0,
            "TEXCOORD_0": 2
          },
          "indices": 3,
          "material": 1,
          "mode": 4
        }
      ]
    },
    {
      "primitives": [
        {
          "attributes": {
            "NORMAL": 5,
            "POSITION": 4,
            "TEXCOORD_0": 6
          },
          "indices": 7,
          "material": 2,
          "mode": 4
        }
      ]
    },
    {
      "primitives": [
        {
          "attributes": {
            "NORMAL": 9,
            "POSITION": 8,
            "TEXCOORD_0": 10
          },
          "indices": 11,
          "material": 3,
          "mode": 4
        }
      ]
    },
    {
      "primitives": [
        {
          "attributes": {
            "NORMAL": 13,
            "POSITION": 12,
            "TEXCOORD_0": 14
          },
          "indices": 15,
          "material": 4,
          "mode": 4
        }
      ]
    },
    {
      "primitives": [
        {
          "attributes": {
            "NORMAL": 17,
            "POSITION": 16,
            "TEXCOORD_0": 18
          },
          "indices": 19,
          "material": 5,
          "mode": 4
        }
      ]
    },
    {
      "primitives": [
        {
          "attributes": {
            "NORMAL": 21,
            "POSITION": 20,
            "TEXCOORD_0": 22
          },
          "indices": 23,
          "material": 6,
          "mode": 4
        }
      ]
    },
    {
      "primitives": [
        {
          "attributes": {
            "NORMAL": 25,
            "POSITION": 24,
            "TEXCOORD_0": 26
          },
          "indices": 27,
          "material": 0,
          "mode": 4
        }
      ]
    }
  ],
  "nodes": [
    {
      "children": [
        1
      ],
      "name": "RootNode (gltf orientation matrix)",
      "rotation": [
        -0.70710678118654746,
        -0,
        -0,
        0.70710678118654757
      ]
    },
    {
      "children": [
        2
      ],
      "name": "RootNode (model correction matrix)"
    },
    {
      "children": [
        3
      ],
      "name": "root"
    },
    {
      "children": [
        4,
        7,
        10
      ],
      "matrix": [
        1,
        0,
        0,
        0,
        0,
        2.2204460492503131e-16,
        1,
        0,
        0,
        -1,
        2.2204460492503131e-16,
        0,
        0,
        0,
        0,
        1
      ],
      "name": "GLTF_SceneRootNode"
    },
    {
      "children": [
        5,
        6
      ],
      "matrix": [
        0.97156464098633089,
        0,
        -0.2367744673420297,
        0,
        0,
        1,
        0,
        0,
        0.2367744673420297,
        0,
        0.97156464098633089,
        0,
        0.011806905269622803,
        0,
        -0.22957056760787964,
        1
      ],
      "name": "Cube_2"
    },
    {
      "mesh": 0,
      "name": ""
    },
    {
      "mesh": 1,
      "name": ""
    },
    {
      "children": [
        8,
        9
      ],
      "matrix": [
        0.11716078997388668,
        0,
        -0.99311295897933738,
        0,
        0,
        1,
        0,
        0,
        0.99311295897933738,
        0,
        0.11716078997388668,
        0,
        -0.52632498741149902,
        0,
        0.53241878747940063,
        1
      ],
      "name": "Cube.001_3"
    },
    {
      "mesh": 2,
      "name": ""
    },
    {
      "mesh": 3,
      "name": ""
    },
    {
      "children": [
        11,
        12,
        13
      ],
      "matrix": [
        0.74707270435327255,
        0,
        -0.66474233685713735,
        0,
        0,
        1,
        0,
        0,
        0.66474233685713735,
        0,
        0.74707270435327255,
        0,
        0.5339168906211853,
        0,
        0.53815031051635742,
        1
      ],
      "name": "Cube.002_4"
    },
    {
      "mesh": 4,
      "name": ""
    },
    {
      "mesh": 5,
      "name": ""
    },
    {
      "mesh": 6,
      "name": ""
    }
  ],
  "scene": 0,
  "scenes": [
    {
      "name": "OSG_Scene",
      "nodes": [
        0
      ]
    }
  ]
}

